<mxfile host="app.diagrams.net" modified="2021-08-20T08:30:58.559Z" agent="5.0 (Windows NT 10.0; Win64; x64) AppleWebKit/537.36 (KHTML, like Gecko) Chrome/92.0.4515.159 Safari/537.36" etag="UudTP6ou3PdhPAoLpZbK" version="14.9.8" type="github">
  <diagram id="1hJ5PgOD3mKvyCdWh2Hb" name="Page-1">
    <mxGraphModel dx="970" dy="588" grid="1" gridSize="10" guides="1" tooltips="1" connect="1" arrows="1" fold="1" page="1" pageScale="1" pageWidth="827" pageHeight="1169" math="0" shadow="0">
      <root>
        <mxCell id="0" />
        <mxCell id="1" parent="0" />
        <mxCell id="QAJVZN91LAHlZY8mAgAB-1" value="" style="rounded=0;whiteSpace=wrap;html=1;" vertex="1" parent="1">
          <mxGeometry x="40" y="40" width="480" height="320" as="geometry" />
        </mxCell>
        <mxCell id="QAJVZN91LAHlZY8mAgAB-2" value="App name" style="text;html=1;strokeColor=none;fillColor=none;align=center;verticalAlign=middle;whiteSpace=wrap;rounded=0;" vertex="1" parent="1">
          <mxGeometry x="220" y="90" width="120" height="20" as="geometry" />
        </mxCell>
        <mxCell id="QAJVZN91LAHlZY8mAgAB-3" value="intro tekst" style="text;html=1;strokeColor=none;fillColor=none;align=center;verticalAlign=middle;whiteSpace=wrap;rounded=0;" vertex="1" parent="1">
          <mxGeometry x="240" y="130" width="70" height="20" as="geometry" />
        </mxCell>
        <mxCell id="QAJVZN91LAHlZY8mAgAB-4" value="Brugernavn:" style="text;html=1;strokeColor=none;fillColor=none;align=center;verticalAlign=middle;whiteSpace=wrap;rounded=0;" vertex="1" parent="1">
          <mxGeometry x="180" y="180" width="60" height="20" as="geometry" />
        </mxCell>
        <mxCell id="QAJVZN91LAHlZY8mAgAB-5" value="Alder:" style="text;html=1;strokeColor=none;fillColor=none;align=center;verticalAlign=middle;whiteSpace=wrap;rounded=0;" vertex="1" parent="1">
          <mxGeometry x="200" y="210" width="50" height="20" as="geometry" />
        </mxCell>
        <mxCell id="QAJVZN91LAHlZY8mAgAB-6" value="" style="rounded=0;whiteSpace=wrap;html=1;" vertex="1" parent="1">
          <mxGeometry x="294" y="180" width="120" height="20" as="geometry" />
        </mxCell>
        <mxCell id="QAJVZN91LAHlZY8mAgAB-7" value="" style="rounded=0;whiteSpace=wrap;html=1;" vertex="1" parent="1">
          <mxGeometry x="294" y="210" width="20" height="20" as="geometry" />
        </mxCell>
        <mxCell id="QAJVZN91LAHlZY8mAgAB-8" value="Nej tak" style="rounded=1;whiteSpace=wrap;html=1;" vertex="1" parent="1">
          <mxGeometry x="170" y="250" width="70" height="20" as="geometry" />
        </mxCell>
        <mxCell id="QAJVZN91LAHlZY8mAgAB-9" value="Ja tak!" style="rounded=1;whiteSpace=wrap;html=1;" vertex="1" parent="1">
          <mxGeometry x="294" y="250" width="70" height="20" as="geometry" />
        </mxCell>
        <mxCell id="QAJVZN91LAHlZY8mAgAB-10" value="Log af" style="rounded=1;whiteSpace=wrap;html=1;" vertex="1" parent="1">
          <mxGeometry x="110" y="300" width="40" height="20" as="geometry" />
        </mxCell>
      </root>
    </mxGraphModel>
  </diagram>
</mxfile>
